<?xml version="1.0" standalone="no"?>
<!DOCTYPE svg PUBLIC "-//W3C//DTD SVG 20010904//EN"
 "http://www.w3.org/TR/2001/REC-SVG-20010904/DTD/svg10.dtd">
<svg version="1.0" xmlns="http://www.w3.org/2000/svg"
 width="204.000000pt" height="192.000000pt" viewBox="0 0 204.000000 192.000000"
 preserveAspectRatio="xMidYMid meet">

<g transform="translate(0.000000,192.000000) scale(0.100000,-0.100000)"
fill="green" stroke="none">
<path d="M639 1886 c-23 -21 -50 -35 -77 -39 -25 -5 -45 -14 -51 -26 -6 -10
-30 -28 -53 -39 -42 -20 -98 -66 -98 -80 0 -9 -44 -53 -87 -88 -18 -14 -33
-34 -33 -43 0 -10 -11 -23 -25 -29 -14 -6 -25 -18 -25 -25 0 -8 -9 -22 -20
-32 -11 -10 -20 -24 -20 -32 0 -7 -16 -31 -36 -53 -30 -33 -37 -49 -45 -112
-6 -40 -15 -81 -20 -91 -5 -10 -12 -35 -14 -55 -2 -20 -8 -62 -14 -92 -5 -30
-10 -68 -9 -85 0 -16 -3 -42 -7 -57 -5 -20 -1 -40 15 -69 15 -29 22 -65 25
-115 2 -46 9 -81 19 -96 9 -12 16 -31 16 -41 0 -10 9 -31 20 -47 11 -15 24
-38 30 -51 5 -13 26 -44 45 -69 20 -25 43 -58 53 -75 9 -16 29 -40 45 -54 15
-14 27 -29 27 -34 0 -29 49 -69 137 -112 54 -27 106 -59 117 -72 42 -54 112
-65 416 -70 273 -5 393 2 413 21 6 6 31 17 53 24 23 7 45 19 48 27 3 9 18 15
35 15 26 0 42 10 121 77 46 39 115 93 120 93 3 0 14 15 25 33 10 17 31 47 47
66 16 18 37 50 46 70 9 20 29 50 44 67 17 18 31 46 34 70 6 44 40 130 63 157
12 15 13 22 3 38 -10 15 -10 25 1 47 14 28 16 190 2 212 -4 7 -4 38 -1 71 5
45 3 66 -10 91 -10 18 -21 49 -25 68 -22 101 -32 130 -45 141 -8 6 -14 18 -14
25 0 7 -11 20 -24 29 -13 9 -36 45 -51 83 -35 82 -42 91 -115 137 -43 27 -59
44 -63 65 -5 21 -15 31 -40 39 -19 6 -44 23 -55 36 -12 14 -30 25 -40 25 -10
0 -58 20 -107 45 l-90 44 -335 0 -335 0 -36 -33z m536 -80 c145 -26 253 -73
370 -161 197 -149 315 -357 345 -609 41 -348 -169 -714 -500 -869 -395 -184
-859 -51 -1100 316 -106 160 -145 302 -137 502 4 110 9 145 35 225 35 107 89
203 170 303 188 232 509 347 817 293z"/>
<path d="M904 1760 c-243 -34 -459 -180 -585 -396 -295 -503 28 -1149 606
-1212 388 -43 740 178 865 544 34 96 35 103 35 259 0 156 -1 163 -35 259 -92
270 -326 479 -596 535 -75 15 -221 21 -290 11z m340 -39 c134 -37 231 -95 336
-200 91 -93 127 -144 173 -247 50 -113 62 -178 62 -324 -1 -149 -12 -200 -71
-329 -91 -199 -259 -349 -470 -422 -96 -33 -103 -34 -254 -34 -143 1 -162 3
-240 29 -256 84 -433 264 -527 533 -25 71 -27 91 -27 228 -1 138 2 156 27 228
86 246 230 407 452 507 59 26 191 57 270 62 69 5 188 -9 269 -31z"/>
<path d="M982 1673 c1 -37 1 -37 5 -6 3 19 11 34 21 36 12 3 10 5 -5 6 -20 1
-23 -3 -21 -36z"/>
<path d="M1047 1703 c-4 -3 -7 -11 -7 -17 0 -6 5 -4 10 4 8 12 13 13 29 3 17
-11 19 -10 15 2 -6 15 -35 20 -47 8z"/>
<path d="M881 1684 c0 -11 3 -14 6 -6 3 7 2 16 -1 19 -3 4 -6 -2 -5 -13z"/>
<path d="M910 1684 c0 -8 5 -12 10 -9 6 4 8 11 5 16 -9 14 -15 11 -15 -7z"/>
<path d="M1150 1684 c0 -10 -5 -14 -15 -10 -13 5 -13 2 1 -19 9 -14 17 -25 18
-25 3 0 4 70 0 70 -2 0 -4 -7 -4 -16z"/>
<path d="M946 1673 c-4 -9 -2 -21 4 -27 7 -7 10 -2 10 17 0 31 -5 34 -14 10z"/>
<path d="M1186 1675 c-9 -26 -7 -32 5 -12 6 10 9 21 6 23 -2 3 -7 -2 -11 -11z"/>
<path d="M801 1663 c-1 -25 6 -28 29 -12 13 9 13 10 -2 5 -10 -3 -18 1 -21 12
-3 12 -5 11 -6 -5z"/>
<path d="M1227 1665 c-4 -8 -2 -17 3 -20 6 -4 10 3 10 14 0 25 -6 27 -13 6z"/>
<path d="M1044 1658 c2 -7 11 -13 21 -13 10 0 19 6 21 13 1 7 0 8 -3 2 -2 -5
-11 -10 -18 -10 -7 0 -16 5 -18 10 -3 6 -4 5 -3 -2z"/>
<path d="M733 1645 c-3 -9 -3 -18 -1 -21 3 -3 8 4 11 16 6 23 -1 27 -10 5z"/>
<path d="M776 1642 c3 -13 0 -31 -7 -40 -12 -16 -12 -16 6 0 15 14 17 21 7 40
l-12 23 6 -23z"/>
<path d="M891 1644 c0 -11 3 -14 6 -6 3 7 2 16 -1 19 -3 4 -6 -2 -5 -13z"/>
<path d="M1265 1640 c-10 -11 -15 -23 -12 -27 4 -3 7 -3 7 2 0 4 6 2 14 -4 10
-9 15 -8 19 3 4 10 1 13 -9 9 -17 -6 -19 8 -2 25 7 7 10 12 7 12 -3 0 -14 -9
-24 -20z"/>
<path d="M1335 1629 c-4 -6 -4 -13 -1 -16 3 -4 6 -1 6 6 0 7 5 9 12 5 7 -4 8
-3 4 4 -9 15 -13 15 -21 1z"/>
<path d="M649 1613 c-13 -17 -13 -17 6 -3 11 8 22 16 24 17 2 2 0 3 -6 3 -6 0
-17 -8 -24 -17z"/>
<path d="M1365 1594 c-9 -14 -15 -27 -13 -30 2 -2 12 10 22 26 21 37 15 40 -9
4z"/>
<path d="M663 1592 c-10 -6 -10 -12 1 -28 12 -16 17 -17 28 -6 11 11 10 12 -4
7 -21 -8 -26 20 -5 28 6 3 8 6 2 6 -5 0 -16 -3 -22 -7z"/>
<path d="M860 1585 c-272 -74 -467 -308 -487 -584 -14 -197 54 -370 202 -516
200 -197 533 -232 784 -82 91 54 181 152 234 254 55 106 77 190 77 293 0 105
-23 200 -70 294 -73 148 -202 263 -360 321 -64 24 -93 28 -200 31 -89 3 -141
0 -180 -11z m376 -34 c143 -55 255 -147 328 -269 68 -113 80 -159 80 -317 1
-172 -18 -243 -95 -359 -163 -244 -485 -350 -745 -246 -109 43 -151 69 -220
137 -132 129 -185 249 -192 433 -3 87 0 131 13 180 56 214 220 387 430 453 76
24 91 26 210 23 96 -3 120 -7 191 -35z"/>
<path d="M1011 1445 c-23 -20 -38 -25 -56 -21 -18 5 -30 1 -42 -14 -14 -16
-25 -18 -55 -14 -23 4 -43 2 -52 -5 -8 -7 -23 -11 -33 -10 -23 4 -63 -10 -63
-20 0 -5 -13 -11 -29 -14 -20 -4 -30 -13 -33 -31 -6 -29 -2 -36 22 -36 10 0
23 -6 30 -14 9 -12 5 -16 -27 -21 -61 -11 -73 -15 -73 -29 0 -9 20 -16 58 -20
105 -11 175 -25 181 -33 3 -5 39 -14 79 -20 72 -11 122 -33 122 -54 0 -6 -10
-9 -22 -6 -13 3 -43 1 -68 -3 -192 -38 -202 -45 -70 -53 70 -4 78 -7 113 -40
24 -23 37 -45 37 -61 0 -26 -14 -35 -25 -16 -11 17 -35 11 -35 -9 0 -16 -10
-21 -57 -26 -75 -8 -143 -25 -143 -36 0 -18 517 -16 534 1 15 15 0 23 -54 28
-27 2 -55 11 -61 18 -8 9 -24 12 -54 7 -41 -5 -44 -4 -51 21 -5 23 0 33 37 67
24 22 57 43 72 46 34 7 33 36 -1 41 -29 4 -30 49 -2 84 15 20 31 26 82 31 52
5 162 38 177 53 2 2 -16 12 -40 23 -24 11 -36 20 -26 20 27 1 20 20 -17 42
-19 11 -46 37 -60 59 -29 44 -58 56 -111 46 -27 -5 -34 -4 -29 7 4 10 -7 16
-38 20 -24 4 -52 9 -64 13 -14 4 -31 -3 -53 -21z m-101 -141 c0 -8 -7 -14 -15
-14 -15 0 -21 21 -9 33 10 9 24 -2 24 -19z m-66 0 c16 -6 23 -54 9 -54 -5 0
-19 9 -33 20 -21 17 -23 21 -10 30 18 12 15 11 34 4z m138 -41 c21 -3 35 -9
32 -14 -7 -12 -57 -11 -88 1 -32 12 -35 35 -3 26 12 -4 39 -10 59 -13z m149
-23 c11 0 19 -4 19 -10 0 -16 -64 -12 -86 6 -18 15 -17 15 15 10 18 -3 42 -6
52 -6z m-306 -9 c7 -12 -12 -24 -25 -16 -11 7 -4 25 10 25 5 0 11 -4 15 -9z
m125 -58 c0 -21 -44 -12 -48 10 -2 10 -1 26 3 35 6 15 9 14 26 -7 10 -13 19
-30 19 -38z m43 24 c5 -16 6 -31 3 -34 -10 -10 -46 29 -46 49 0 29 32 18 43
-15z m42 -7 c0 -7 -6 -15 -12 -17 -8 -3 -13 4 -13 17 0 13 5 20 13 18 6 -3 12
-11 12 -18z m124 -32 c-8 -14 -14 -17 -22 -9 -7 7 -6 15 3 25 17 22 32 9 19
-16z m-48 -1 c-13 -13 -26 -3 -16 12 3 6 11 8 17 5 6 -4 6 -10 -1 -17z m-43
-20 c2 -15 -1 -27 -7 -27 -14 0 -41 41 -35 52 12 18 39 2 42 -25z m69 -23 c7
-18 -20 -44 -44 -44 -13 0 -18 41 -6 53 12 13 44 7 50 -9z m-99 -76 c16 -16
15 -48 -1 -48 -13 0 -36 21 -51 48 -9 16 36 16 52 0z m62 -16 c0 -15 -28 -47
-35 -40 -11 11 5 48 21 48 8 0 14 -4 14 -8z"/>
<path d="M850 700 c0 -33 4 -60 10 -60 6 0 10 25 10 55 0 48 3 55 20 55 17 0
19 -6 17 -55 -3 -57 2 -65 23 -39 11 12 10 18 -3 31 -12 13 -13 20 -4 35 15
23 -3 38 -45 38 -27 0 -28 -1 -28 -60z"/>
<path d="M970 700 c0 -44 4 -60 14 -60 10 0 13 15 12 60 -1 41 -5 60 -13 60
-9 0 -13 -19 -13 -60z"/>
<path d="M1048 700 c-2 -43 1 -60 10 -60 8 0 12 19 12 60 0 78 -17 78 -22 0z"/>
<path d="M1120 753 c24 -9 28 -22 22 -69 -4 -36 -2 -44 12 -44 13 0 16 11 16
60 l0 60 -32 -1 c-18 0 -26 -3 -18 -6z"/>
<path d="M859 566 c-8 -8 3 -116 12 -116 5 0 9 27 9 60 0 53 -7 70 -21 56z"/>
<path d="M942 558 c-15 -15 -15 -41 0 -56 17 -17 33 -15 18 3 -7 8 -10 26 -8
40 6 29 6 29 -10 13z"/>
<path d="M975 516 c0 -43 3 -52 13 -44 8 7 12 27 10 51 -5 61 -23 55 -23 -7z"/>
<path d="M1037 563 c-13 -12 -7 -61 7 -66 12 -5 13 2 9 31 -7 43 -7 44 -16 35z"/>
<path d="M1075 516 c0 -42 3 -52 13 -44 13 11 16 56 6 82 -12 30 -19 16 -19
-38z"/>
<path d="M1137 564 c-13 -13 -7 -33 17 -56 13 -13 26 -32 29 -43 4 -19 4 -19
12 -1 5 11 4 26 -2 35 -7 11 -7 21 1 33 8 13 7 21 -2 30 -9 9 -12 6 -12 -16 0
-33 -22 -31 -30 3 -3 12 -8 19 -13 15z"/>
<path d="M1130 470 c0 -11 4 -20 9 -20 5 0 7 9 4 20 -3 11 -7 20 -9 20 -2 0
-4 -9 -4 -20z"/>
<path d="M600 1581 c0 -5 8 -15 18 -22 15 -12 16 -12 5 2 -7 9 -10 19 -6 22 3
4 1 7 -5 7 -7 0 -12 -4 -12 -9z"/>
<path d="M1385 1569 c-4 -12 -2 -26 4 -32 17 -17 46 4 48 34 l2 24 -7 -25 c-5
-14 -16 -26 -26 -28 -16 -3 -18 0 -12 22 8 31 0 35 -9 5z"/>
<path d="M573 1544 c9 -11 17 -26 17 -32 0 -20 -26 -13 -45 11 -17 22 -17 22
-2 -3 17 -30 45 -38 53 -15 4 11 -2 25 -17 38 -21 20 -22 20 -6 1z"/>
<path d="M1449 1533 l-24 -26 27 19 c15 10 28 22 28 27 0 12 -5 8 -31 -20z"/>
<path d="M503 1508 c-8 -10 -2 -20 21 -37 l31 -25 -24 26 c-12 15 -20 31 -16
37 9 15 0 14 -12 -1z"/>
<path d="M1460 1498 c0 -12 3 -17 8 -12 4 5 11 12 15 15 5 3 2 9 -7 12 -12 5
-16 0 -16 -15z"/>
<path d="M1543 1493 c4 -3 -3 -17 -15 -30 -16 -17 -18 -22 -6 -18 9 4 19 13
22 21 4 9 11 12 18 8 9 -5 9 -3 -1 9 -7 9 -16 17 -19 17 -3 0 -2 -3 1 -7z"/>
<path d="M487 1449 c12 -12 24 -21 27 -18 2 2 -8 13 -22 23 l-27 19 22 -24z"/>
<path d="M443 1448 c-8 -9 -2 -20 18 -36 18 -15 27 -18 23 -9 -3 9 -12 18 -21
21 -8 4 -13 13 -9 21 7 18 2 19 -11 3z"/>
<path d="M1556 1431 c-17 -18 -13 -51 6 -51 6 0 5 6 -2 15 -10 12 -9 18 4 31
9 9 23 13 32 10 8 -3 12 -2 9 4 -10 15 -30 12 -49 -9z"/>
<path d="M395 1390 c-3 -5 -3 -14 0 -20 8 -13 32 -13 41 1 4 8 0 9 -15 4 -22
-7 -30 10 -8 18 9 4 9 6 0 6 -6 1 -15 -3 -18 -9z"/>
<path d="M1590 1374 c-11 -12 -10 -18 5 -32 18 -16 18 -16 6 1 -11 14 -11 20
-1 32 7 8 10 15 7 15 -2 0 -10 -7 -17 -16z"/>
<path d="M1637 1370 c3 -11 7 -20 9 -20 2 0 4 9 4 20 0 11 -4 20 -9 20 -5 0
-7 -9 -4 -20z"/>
<path d="M440 1350 c-9 -6 -10 -10 -3 -10 6 0 15 5 18 10 8 12 4 12 -15 0z"/>
<path d="M402 1324 c10 -10 20 -15 24 -12 3 4 -5 12 -18 18 -22 12 -22 12 -6
-6z"/>
<path d="M1630 1320 c-24 -19 -24 -19 -2 -13 16 4 22 1 22 -11 0 -9 -5 -16
-12 -16 -6 0 -8 -3 -5 -6 4 -4 13 -1 22 6 12 10 13 16 3 27 -9 11 -9 16 3 24
8 5 10 9 4 9 -5 0 -21 -9 -35 -20z"/>
<path d="M360 1314 c0 -9 33 -33 45 -33 6 0 2 4 -8 10 -9 6 -15 14 -12 20 4 5
-1 9 -9 9 -9 0 -16 -3 -16 -6z"/>
<path d="M1670 1263 c-14 -8 -17 -12 -7 -9 18 6 24 -9 7 -19 -16 -10 -12 -25
5 -18 9 3 14 8 11 11 -3 2 -1 13 5 24 14 26 9 29 -21 11z"/>
<path d="M327 1229 c7 -7 15 -10 18 -7 3 3 -2 9 -12 12 -14 6 -15 5 -6 -5z"/>
<path d="M1731 1183 c-1 -17 -7 -23 -25 -23 -13 0 -27 5 -29 10 -3 6 -4 5 -3
-2 4 -19 55 -22 62 -4 3 8 4 21 1 28 -3 7 -6 3 -6 -9z"/>
<path d="M348 1183 c7 -3 16 -2 19 1 4 3 -2 6 -13 5 -11 0 -14 -3 -6 -6z"/>
<path d="M296 1171 c5 -5 20 -12 34 -16 24 -7 24 -7 5 9 -21 16 -56 23 -39 7z"/>
<path d="M290 1120 c-11 -7 -5 -8 20 -4 43 8 51 14 19 14 -13 0 -31 -5 -39
-10z"/>
<path d="M1693 1115 c-3 -9 -3 -19 1 -22 3 -4 6 1 6 10 0 8 8 18 18 20 16 4
16 5 -1 6 -10 0 -20 -6 -24 -14z"/>
<path d="M1713 1074 c-7 -3 -13 -13 -13 -22 1 -15 2 -15 11 1 14 23 47 22 52
-3 4 -17 4 -16 3 2 -1 23 -26 33 -53 22z"/>
<path d="M270 1060 c0 -5 7 -7 15 -4 10 4 15 0 15 -15 0 -13 6 -21 18 -21 14
0 15 2 2 10 -13 8 -13 11 3 22 15 12 13 13 -18 15 -19 1 -35 -2 -35 -7z"/>
<path d="M270 1030 c0 -5 5 -10 11 -10 5 0 7 5 4 10 -3 6 -8 10 -11 10 -2 0
-4 -4 -4 -10z"/>
<path d="M1728 1023 c7 -3 16 -2 19 1 4 3 -2 6 -13 5 -11 0 -14 -3 -6 -6z"/>
<path d="M266 982 c-6 -10 53 -36 62 -27 3 3 0 5 -7 5 -7 0 -9 4 -6 10 4 6 -1
7 -10 3 -10 -3 -21 0 -25 7 -5 8 -10 8 -14 2z"/>
<path d="M1766 963 c-6 -14 -5 -15 5 -6 7 7 10 15 7 18 -3 3 -9 -2 -12 -12z"/>
<path d="M1720 960 c-13 -8 -12 -10 3 -10 9 0 17 5 17 10 0 12 -1 12 -20 0z"/>
<path d="M263 914 c-7 -18 11 -39 26 -30 6 4 11 13 11 21 0 7 8 16 18 18 15 4
15 5 -1 6 -11 1 -21 -7 -24 -19 -3 -11 -10 -20 -15 -20 -6 0 -8 9 -5 20 6 24
-1 27 -10 4z"/>
<path d="M1738 912 c-15 -6 -13 -9 8 -19 21 -10 23 -9 15 1 -6 7 -8 16 -4 19
8 8 4 8 -19 -1z"/>
<path d="M1724 819 c-3 -6 0 -18 9 -26 13 -13 15 -12 15 11 0 27 -12 34 -24
15z"/>
<path d="M306 812 c-6 -10 5 -26 22 -30 10 -2 10 2 2 18 -12 22 -16 24 -24 12z"/>
<path d="M1702 751 c-10 -6 -10 -10 2 -20 16 -13 29 -2 18 16 -4 7 -13 8 -20
4z"/>
<path d="M327 736 c-3 -7 -2 -18 2 -24 7 -12 25 -3 28 15 3 16 -24 24 -30 9z"/>
<path d="M1683 673 c-18 -6 -16 -33 1 -33 8 0 17 4 20 8 7 12 -7 30 -21 25z"/>
<path d="M350 650 c-16 -11 -15 -11 17 -15 14 -1 20 2 16 11 -6 16 -13 17 -33
4z"/>
<path d="M1590 575 c-9 -11 -10 -19 -3 -26 8 -8 11 -6 10 6 -1 10 4 20 12 23
10 3 12 -2 7 -21 -3 -14 -2 -29 4 -32 6 -3 7 1 4 9 -5 12 1 16 22 17 22 1 24
3 9 6 -11 3 -24 11 -28 19 -10 18 -21 18 -37 -1z"/>
<path d="M427 559 c-4 -13 -10 -18 -17 -14 -9 6 -9 10 1 16 11 7 10 9 -4 9
-14 0 -17 -5 -11 -22 3 -13 8 -25 10 -27 4 -5 43 41 44 52 0 16 -18 5 -23 -14z"/>
<path d="M445 513 c-19 -17 -23 -24 -11 -20 12 5 23 3 28 -5 6 -9 7 -5 3 10
-7 24 4 29 24 10 11 -11 11 -9 2 10 -6 12 -13 22 -14 22 -1 0 -15 -13 -32 -27z"/>
<path d="M1577 519 c12 -12 24 -21 27 -18 2 2 -8 13 -22 23 l-27 19 22 -24z"/>
<path d="M1554 486 c30 -29 57 -31 63 -6 4 12 3 13 -5 1 -10 -15 -20 -12 -62
15 -22 14 -21 13 4 -10z"/>
<path d="M484 457 c-16 -17 -21 -25 -12 -18 9 7 23 9 29 5 8 -4 9 -3 5 4 -12
19 3 35 20 21 8 -7 14 -7 14 -1 0 24 -30 18 -56 -11z"/>
<path d="M1500 460 c0 -5 7 -10 16 -10 8 0 12 5 9 10 -3 6 -10 10 -16 10 -5 0
-9 -4 -9 -10z"/>
<path d="M1533 431 c-8 -12 -8 -22 -1 -32 8 -11 9 -10 4 4 -4 12 1 20 16 26
16 6 18 9 6 13 -8 3 -19 -2 -25 -11z"/>
<path d="M530 415 c-13 -14 -21 -27 -18 -30 2 -3 14 9 27 25 26 37 23 39 -9 5z"/>
<path d="M564 398 l-19 -23 23 19 c21 18 27 26 19 26 -2 0 -12 -10 -23 -22z"/>
<path d="M1455 384 c8 -20 15 -39 16 -43 0 -3 5 5 10 18 6 15 15 21 24 17 25
-9 17 1 -19 23 -45 28 -49 27 -31 -15z m30 6 c3 -5 -1 -10 -9 -10 -9 0 -16 5
-16 10 0 6 4 10 9 10 6 0 13 -4 16 -10z"/>
<path d="M624 378 c-4 -7 -14 -24 -22 -38 -14 -24 -13 -24 3 -5 20 24 37 55
31 55 -3 0 -8 -6 -12 -12z"/>
<path d="M540 361 c0 -5 7 -12 16 -15 14 -5 15 -4 4 9 -14 17 -20 19 -20 6z"/>
<path d="M648 335 c-33 -29 -35 -35 -8 -28 14 4 20 0 20 -13 0 -26 11 -10 20
30 9 42 5 44 -32 11z m22 -11 c0 -8 -5 -12 -10 -9 -6 4 -8 11 -5 16 9 14 15
11 15 -7z"/>
<path d="M717 333 c10 -3 9 -12 -3 -35 -8 -16 -13 -32 -11 -34 2 -3 10 9 17
26 7 16 18 30 24 30 6 0 4 5 -4 10 -8 5 -19 9 -25 9 -5 0 -4 -3 2 -6z"/>
<path d="M1318 333 c7 -3 16 -2 19 1 4 3 -2 6 -13 5 -11 0 -14 -3 -6 -6z"/>
<path d="M766 303 c-10 -26 -7 -33 17 -32 16 1 18 2 5 6 -25 6 -22 21 5 25
l22 3 -22 7 c-14 4 -24 1 -27 -9z"/>
<path d="M1310 309 c0 -5 12 -9 26 -9 16 0 24 -5 21 -12 -2 -7 -12 -12 -22
-11 -12 1 -14 -2 -7 -9 15 -15 44 -1 40 19 -3 17 -58 38 -58 22z"/>
<path d="M1250 268 c0 -28 3 -38 9 -29 5 7 7 23 4 35 -4 20 -4 20 10 4 22 -27
30 -21 10 7 -26 35 -33 31 -33 -17z"/>
<path d="M1200 275 c0 -15 4 -24 10 -20 6 3 10 12 10 20 0 8 -4 17 -10 20 -6
4 -10 -5 -10 -20z"/>
<path d="M831 273 c0 -10 3 -13 6 -5 7 17 33 15 33 -2 0 -39 -31 -63 -43 -33
-3 7 -6 5 -6 -5 -1 -11 6 -18 18 -18 44 0 57 72 14 78 -17 3 -23 -1 -22 -15z"/>
<path d="M1160 265 c1 -26 2 -28 11 -12 8 14 8 22 0 30 -8 8 -11 3 -11 -18z"/>
<path d="M935 270 c3 -5 16 -10 28 -9 21 0 21 1 2 9 -28 12 -37 12 -30 0z"/>
<path d="M1091 263 c1 -25 17 -71 18 -54 1 8 8 19 18 26 21 16 10 45 -17 45
-13 0 -20 -6 -19 -17z m39 -8 c0 -8 -7 -15 -15 -15 -8 0 -15 7 -15 15 0 8 7
15 15 15 8 0 15 -7 15 -15z"/>
<path d="M993 255 c-3 -9 -3 -19 1 -22 3 -4 6 1 6 11 0 26 34 15 38 -12 4 -26
-25 -42 -40 -21 -8 12 -9 11 -5 -1 2 -8 13 -16 24 -18 24 -4 38 26 28 58 -7
24 -43 27 -52 5z"/>
<path d="M750 251 c0 -10 19 -25 25 -20 1 2 -3 10 -11 17 -8 7 -14 8 -14 3z"/>
<path d="M942 225 c0 -16 2 -22 5 -12 2 9 2 23 0 30 -3 6 -5 -1 -5 -18z"/>
<path d="M1190 230 c6 -11 13 -20 16 -20 2 0 0 9 -6 20 -6 11 -13 20 -16 20
-2 0 0 -9 6 -20z"/>
<path d="M1221 234 c0 -11 3 -14 6 -6 3 7 2 16 -1 19 -3 4 -6 -2 -5 -13z"/>
</g>
</svg>
