<?xml version="1.0" standalone="no"?>
<!DOCTYPE svg PUBLIC "-//W3C//DTD SVG 20010904//EN"
 "http://www.w3.org/TR/2001/REC-SVG-20010904/DTD/svg10.dtd">
<svg version="1.0" xmlns="http://www.w3.org/2000/svg"
 width="50.000000pt" height="50.000000pt" viewBox="0 0 50.000000 50.000000"
 preserveAspectRatio="xMidYMid meet">

<g transform="translate(0.000000,50.000000) scale(0.100000,-0.100000)"
fill="#000000" stroke="none">
<path d="M70 250 l0 -230 121 0 c77 0 118 4 114 10 -3 6 -52 10 -111 10 l-104
0 0 210 0 210 100 0 100 0 0 -60 0 -60 60 0 60 0 0 -60 c0 -33 4 -60 10 -60 6
0 10 29 10 68 l0 68 -63 62 -63 62 -117 0 -117 0 0 -230z m285 150 l39 -40
-42 0 -42 0 0 40 c0 22 1 40 3 40 2 0 21 -18 42 -40z"/>
<path d="M351 186 c-87 -48 -50 -186 49 -186 51 0 100 49 100 99 0 75 -83 124
-149 87z m39 -51 l0 -45 45 0 c51 0 56 -10 20 -45 -49 -50 -135 -15 -135 55 0
30 37 80 60 80 5 0 10 -20 10 -45z m65 20 c34 -33 31 -45 -10 -45 -33 0 -35 2
-35 35 0 41 12 44 45 10z"/>
</g>
</svg>
