<?xml version="1.0" standalone="no"?>
<!DOCTYPE svg PUBLIC "-//W3C//DTD SVG 20010904//EN"
 "http://www.w3.org/TR/2001/REC-SVG-20010904/DTD/svg10.dtd">
<svg version="1.0" xmlns="http://www.w3.org/2000/svg"
 width="50.000000pt" height="50.000000pt" viewBox="0 0 50.000000 50.000000"
 preserveAspectRatio="xMidYMid meet">

<g transform="translate(0.000000,50.000000) scale(0.100000,-0.100000)"
fill="#000000" stroke="none">
<path d="M35 458 c-3 -8 -4 -106 -3 -218 l3 -205 133 -3 c90 -2 131 1 127 8
-3 5 -28 10 -56 10 l-49 0 0 155 0 155 60 0 60 0 0 -91 c0 -57 4 -88 10 -84 6
4 10 60 10 136 l0 129 60 0 60 0 0 -119 c0 -72 4 -122 10 -126 7 -4 10 37 8
127 l-3 133 -75 0 -75 0 -3 -42 -3 -43 -59 0 -59 0 -3 43 -3 42 -73 3 c-53 2
-74 -1 -77 -10z m135 -208 l0 -200 -60 0 -60 0 0 200 0 200 60 0 60 0 0 -200z"/>
<path d="M70 380 c0 -5 18 -10 40 -10 22 0 40 5 40 10 0 6 -18 10 -40 10 -22
0 -40 -4 -40 -10z"/>
<path d="M70 150 c0 -5 18 -10 40 -10 22 0 40 5 40 10 0 6 -18 10 -40 10 -22
0 -40 -4 -40 -10z"/>
<path d="M70 110 c0 -5 18 -10 40 -10 22 0 40 5 40 10 0 6 -18 10 -40 10 -22
0 -40 -4 -40 -10z"/>
<path d="M350 380 c0 -5 18 -10 40 -10 22 0 40 5 40 10 0 6 -18 10 -40 10 -22
0 -40 -4 -40 -10z"/>
<path d="M210 290 c0 -5 18 -10 40 -10 22 0 40 5 40 10 0 6 -18 10 -40 10 -22
0 -40 -4 -40 -10z"/>
<path d="M351 186 c-87 -48 -50 -186 49 -186 51 0 100 49 100 99 0 75 -83 124
-149 87z m104 -31 c50 -49 15 -135 -55 -135 -41 0 -80 39 -80 80 0 70 86 105
135 55z"/>
<path d="M413 113 c-18 -25 -23 -27 -42 -15 -30 17 -29 -8 1 -27 20 -12 24
-11 50 20 15 19 28 37 28 42 0 15 -17 6 -37 -20z"/>
<path d="M210 100 c0 -5 16 -10 35 -10 19 0 35 5 35 10 0 6 -16 10 -35 10 -19
0 -35 -4 -35 -10z"/>
</g>
</svg>
