<?xml version="1.0" standalone="no"?>
<!DOCTYPE svg PUBLIC "-//W3C//DTD SVG 20010904//EN"
 "http://www.w3.org/TR/2001/REC-SVG-20010904/DTD/svg10.dtd">
<svg version="1.0" xmlns="http://www.w3.org/2000/svg"
 width="50.000000pt" height="50.000000pt" viewBox="0 0 50.000000 50.000000"
 preserveAspectRatio="xMidYMid meet">

<g transform="translate(0.000000,50.000000) scale(0.100000,-0.100000)"
fill="#000000" stroke="none">
<path d="M209 425 c-15 -8 -29 -21 -32 -28 -3 -9 -15 -13 -29 -10 -14 3 -34
-4 -51 -17 -22 -17 -27 -29 -27 -65 0 -24 8 -58 18 -75 16 -31 16 -32 -2 -43
-65 -41 -81 -55 -84 -75 -3 -19 1 -22 32 -22 25 0 36 -4 36 -15 0 -13 27 -15
180 -15 153 0 180 2 180 15 0 10 11 15 35 15 22 0 35 5 35 13 0 24 -30 56 -65
67 -38 13 -45 33 -20 66 8 10 15 38 15 62 0 34 -6 48 -27 68 -15 14 -36 24
-48 22 -19 -2 -29 3 -70 40 -18 16 -43 15 -76 -3z m61 -15 c0 -5 7 -10 15 -10
36 0 43 -83 13 -150 -9 -19 -18 -43 -22 -52 -7 -23 -45 -23 -52 0 -4 9 -13 33
-22 52 -20 44 -25 105 -11 131 15 29 79 52 79 29z m-116 -49 c4 -5 7 -22 7
-38 1 -15 11 -50 22 -77 l21 -48 -24 -20 c-22 -18 -25 -18 -28 -4 -2 9 -9 16
-16 16 -15 0 -37 54 -43 107 -3 34 0 44 19 57 26 18 35 20 42 7z m232 -7 c19
-13 24 -24 23 -53 -1 -20 -8 -46 -16 -58 -7 -12 -13 -29 -13 -38 0 -8 -6 -15
-14 -15 -8 0 -16 -7 -18 -16 -3 -14 -6 -14 -28 4 l-25 20 23 46 c12 26 22 64
22 86 0 44 8 48 46 24z m-256 -195 c0 -5 -4 -9 -10 -9 -5 0 -10 7 -10 16 0 8
5 12 10 9 6 -3 10 -10 10 -16z m105 1 c4 -6 3 -24 0 -42 -8 -36 -25 -20 -25
25 0 27 13 36 25 17z m54 -12 c0 -13 -4 -32 -8 -43 -7 -18 -9 -16 -15 12 -8
33 -2 53 15 53 5 0 9 -10 8 -22z m101 18 c0 -3 -4 -8 -10 -11 -5 -3 -10 -1
-10 4 0 6 5 11 10 11 6 0 10 -2 10 -4z m-304 -44 c-7 -8 -26 -12 -42 -10 l-29
3 35 22 c25 17 36 19 42 10 4 -7 1 -18 -6 -25z m389 -2 c10 -16 -51 -12 -65 5
-20 24 -2 37 30 20 16 -8 32 -19 35 -25z m-285 18 c0 -7 3 -23 6 -35 6 -22 4
-23 -50 -23 -53 0 -56 1 -46 20 19 35 90 64 90 38z m170 -3 c16 -8 34 -24 40
-35 10 -19 8 -20 -46 -20 -54 0 -56 1 -50 23 3 12 6 28 6 35 0 16 15 15 50 -3z"/>
</g>
</svg>
