<?xml version="1.0" standalone="no"?>
<!DOCTYPE svg PUBLIC "-//W3C//DTD SVG 20010904//EN"
 "http://www.w3.org/TR/2001/REC-SVG-20010904/DTD/svg10.dtd">
<svg version="1.0" xmlns="http://www.w3.org/2000/svg"
 width="50.000000pt" height="50.000000pt" viewBox="0 0 50.000000 50.000000"
 preserveAspectRatio="xMidYMid meet">

<g transform="translate(0.000000,50.000000) scale(0.100000,-0.100000)"
fill="#000000" stroke="none">
<path d="M45 417 c-3 -7 -4 -87 -3 -177 l3 -165 205 0 205 0 0 175 0 175 -203
3 c-160 2 -204 0 -207 -11z m395 -27 c0 -19 -7 -20 -190 -20 -183 0 -190 1
-190 20 0 19 7 20 190 20 183 0 190 -1 190 -20z m0 -170 l0 -130 -190 0 -190
0 0 130 0 130 190 0 190 0 0 -130z"/>
<path d="M70 390 c0 -5 5 -10 10 -10 6 0 10 5 10 10 0 6 -4 10 -10 10 -5 0
-10 -4 -10 -10z"/>
<path d="M100 390 c0 -5 5 -10 10 -10 6 0 10 5 10 10 0 6 -4 10 -10 10 -5 0
-10 -4 -10 -10z"/>
<path d="M130 390 c0 -5 5 -10 10 -10 6 0 10 5 10 10 0 6 -4 10 -10 10 -5 0
-10 -4 -10 -10z"/>
<path d="M345 284 c-13 -21 -19 -23 -31 -13 -22 18 -30 2 -9 -21 10 -11 22
-20 26 -20 7 0 49 62 49 74 0 15 -19 4 -35 -20z"/>
<path d="M120 270 c0 -6 28 -10 65 -10 37 0 65 4 65 10 0 6 -28 10 -65 10 -37
0 -65 -4 -65 -10z"/>
<path d="M345 184 c-13 -21 -19 -23 -31 -13 -22 18 -30 2 -9 -21 10 -11 22
-20 26 -20 7 0 49 62 49 74 0 15 -19 4 -35 -20z"/>
<path d="M120 170 c0 -6 28 -10 65 -10 37 0 65 4 65 10 0 6 -28 10 -65 10 -37
0 -65 -4 -65 -10z"/>
</g>
</svg>
