<?xml version="1.0" standalone="no"?>
<!DOCTYPE svg PUBLIC "-//W3C//DTD SVG 20010904//EN"
 "http://www.w3.org/TR/2001/REC-SVG-20010904/DTD/svg10.dtd">
<svg version="1.0" xmlns="http://www.w3.org/2000/svg"
 width="100.000000pt" height="100.000000pt" viewBox="0 0 100.000000 100.000000"
 preserveAspectRatio="xMidYMid meet">

<g transform="translate(0.000000,100.000000) scale(0.100000,-0.100000)"
fill="#000000" stroke="none">
<path d="M167 920 l-54 -81 -27 36 c-28 36 -53 44 -74 23 -20 -20 -14 -41 33
-97 49 -60 67 -74 87 -66 17 7 148 206 148 226 0 8 -5 20 -12 27 -26 26 -48
11 -101 -68z"/>
<path d="M400 840 l0 -40 300 0 300 0 0 40 0 40 -300 0 -300 0 0 -40z"/>
<path d="M166 579 l-54 -80 -21 30 c-25 35 -56 48 -76 31 -25 -20 -17 -45 31
-103 46 -57 65 -70 87 -61 16 6 147 206 147 225 0 8 -5 20 -12 27 -26 26 -48
11 -102 -69z"/>
<path d="M400 500 l0 -40 300 0 300 0 0 40 0 40 -300 0 -300 0 0 -40z"/>
<path d="M167 200 l-54 -80 -30 35 c-17 19 -38 35 -46 35 -22 0 -40 -27 -33
-52 6 -25 97 -128 112 -128 18 0 32 17 97 115 68 102 76 122 55 143 -26 26
-48 11 -101 -68z"/>
<path d="M400 120 l0 -40 300 0 300 0 0 40 0 40 -300 0 -300 0 0 -40z"/>
</g>
</svg>
